<svg width="23" height="20" viewBox="0 0 23 20" fill="none" xmlns="http://www.w3.org/2000/svg">
<g clip-path="url(#clip0)">
<path d="M22.5 8.8V15C22.5 16.4 21.4 17.5 20 17.5H18.8V19.5C18.8 19.8 18.6 20 18.3 20C18.2 20 18.1 20 18 19.9L13.7 17.5H10C8.6 17.5 7.5 16.4 7.5 15V12L4.5 13.7C4.4 13.8 4.3 13.8 4.2 13.8C4 13.8 3.7 13.6 3.7 13.3V11.3H2.5C1.1 11.2 0 10.1 0 8.8V2.5C0 1.1 1.1 0 2.5 0H13.7C15.1 0 16.2 1.1 16.2 2.5V6.3H20C21.4 6.2 22.5 7.4 22.5 8.8ZM5.6 9.4V10.9L7.8 9.7L8.2 9.5H13.7C14 9.5 14.3 9.2 14.3 8.9V2.5C14.3 2.2 14 1.9 13.7 1.9H2.5C2.2 1.9 1.9 2.2 1.9 2.5V8.7C1.9 9 2.2 9.3 2.5 9.3H3.7H5.6V9.4ZM20.6 8.8C20.6 8.5 20.3 8.2 20 8.2H16.2V8.8C16.2 10.2 15.1 11.3 13.7 11.3H9.4V15C9.4 15.3 9.7 15.6 10 15.6H14.2L14.6 15.8L16.8 17V15.5H20C20.3 15.5 20.6 15.2 20.6 14.9V8.8Z" fill="white"/>
</g>
<defs>
<clipPath id="clip0">
<rect width="22.5" height="20" fill="white"/>
</clipPath>
</defs>
</svg>
