<svg width="139" height="65" viewBox="0 0 139 65" fill="none" xmlns="http://www.w3.org/2000/svg">
<path d="M131.48 52.3917C131.48 50.2107 133.202 48.8333 135.039 48.8333C136.875 48.8333 138.597 50.2107 138.597 52.3917C138.597 54.5726 136.875 55.9501 135.039 55.9501C133.087 56.0649 131.48 54.5726 131.48 52.3917ZM135.039 49.522C133.546 49.522 132.398 50.6698 132.398 52.3917C132.398 53.9987 133.546 55.2613 135.039 55.2613C136.531 55.2613 137.679 54.1135 137.679 52.3917C137.679 50.7846 136.416 49.522 135.039 49.522ZM134.35 54.4578C134.12 54.4578 133.891 54.4578 133.546 54.4578C133.546 53.0804 133.546 51.8177 133.546 50.4403C134.006 50.4403 134.579 50.4403 135.039 50.4403C135.957 50.4403 136.531 50.7846 136.531 51.5882C136.531 52.2769 136.072 52.6212 135.613 52.6212C135.957 53.1952 136.186 53.7691 136.531 54.343C136.301 54.343 135.957 54.343 135.727 54.343C135.383 53.7691 135.153 53.1952 134.809 52.6212C134.694 52.6212 134.465 52.6212 134.35 52.6212C134.35 53.31 134.35 53.8839 134.35 54.4578ZM134.35 52.0473C134.579 52.0473 134.809 52.0473 135.039 52.0473C135.613 52.0473 135.842 51.8177 135.842 51.4734C135.842 51.129 135.613 51.0142 135.039 51.0142C134.809 51.0142 134.579 51.0142 134.465 51.0142C134.35 51.3586 134.35 51.7029 134.35 52.0473Z" fill="white"/>
<path d="M126.085 11.183C106.457 5.09926 85.7948 2 64.4444 2C43.0939 2 22.4322 5.09926 2.80351 11.183L2 11.4126V54.1135L2.80351 54.3431C22.4322 60.4268 43.0939 63.5261 64.4444 63.5261C85.7948 63.5261 106.457 60.4268 126.085 54.3431L126.889 54.1135V11.4126L126.085 11.183Z" fill="#E2231A" stroke="white" stroke-width="2.2471" stroke-miterlimit="10"/>
<path d="M9.23163 25.9905C9.23163 23.3504 10.4943 21.8582 12.9048 21.8582C14.0527 21.8582 14.6266 21.8582 15.7745 21.8582C18.185 21.8582 19.4477 23.2356 19.4477 25.8757C19.4477 31.5003 19.4477 34.37 19.4477 39.9946C19.4477 42.6347 18.185 44.0121 15.7745 44.2417C14.6266 44.3565 14.0527 44.3565 12.9048 44.4713C10.4943 44.7008 9.23163 43.3234 9.23163 40.6833C9.23163 34.8291 9.23163 31.8447 9.23163 25.9905ZM15.0858 40.6833C15.7745 40.6833 16.1189 40.2241 16.1189 39.5354C16.1189 34.37 16.1189 31.8447 16.1189 26.6792C16.1189 25.9905 15.7745 25.5314 15.0858 25.5314C14.5118 25.5314 14.1675 25.5314 13.5935 25.5314C12.9048 25.5314 12.5605 25.9905 12.5605 26.6792C12.5605 31.8447 12.5605 34.4848 12.5605 39.6502C12.5605 40.4537 12.9048 40.7981 13.5935 40.6833C14.1675 40.6833 14.3971 40.6833 15.0858 40.6833Z" fill="white"/>
<path d="M21.8583 22.4321C21.8583 22.0877 22.0879 21.8582 22.3174 21.8582C23.2357 21.8582 23.6949 21.8582 24.6132 21.8582C24.9575 21.8582 25.0723 22.0877 25.0723 22.4321C25.0723 23.4652 25.0723 24.0391 25.0723 25.0722C25.0723 25.3018 25.0723 25.5314 24.8427 25.7609C24.2688 26.6792 24.0392 27.1384 23.4653 28.0567C23.4653 28.1715 23.4653 28.1715 23.2357 28.1715C22.7766 28.1715 22.547 28.1715 22.0879 28.1715C21.8583 28.1715 21.8583 28.0567 21.8583 27.8271C22.3174 26.9088 22.4322 26.3349 22.8914 25.4166C22.6618 25.4166 22.547 25.4166 22.3174 25.4166C21.9731 25.4166 21.8583 25.187 21.8583 24.8426C21.8583 23.9243 21.8583 23.4652 21.8583 22.4321Z" fill="white"/>
<path d="M35.7476 42.979C35.4032 42.979 35.2884 42.8642 35.1736 42.6346C33.911 39.5354 33.2223 38.0431 31.9596 34.9439C31.6152 35.7474 31.3857 36.0918 31.0413 36.8953C31.0413 39.3058 31.0413 40.4537 31.0413 42.7494C31.0413 43.0938 30.8117 43.3234 30.5821 43.3234C29.6638 43.3234 29.0899 43.4381 28.1716 43.4381C27.8273 43.4381 27.7125 43.3234 27.7125 42.979C27.7125 36.2065 27.7125 29.3193 27.7125 22.5468C27.7125 22.2025 27.942 21.9729 28.1716 21.9729C29.0899 21.9729 29.6638 21.9729 30.5821 21.9729C30.9265 21.9729 31.0413 22.2025 31.0413 22.5468C31.0413 25.8757 31.0413 27.4827 31.0413 30.8115C32.6483 27.3679 33.337 25.7609 34.9441 22.432C35.0589 22.2025 35.2884 22.0877 35.518 22.0877C36.5511 22.0877 37.125 22.0877 38.1581 22.0877C38.5025 22.0877 38.7321 22.3173 38.5025 22.6616C36.7807 26.3348 35.9772 28.1714 34.2553 31.8446C36.0919 36.0918 37.0102 38.1579 38.8468 42.2903C39.0764 42.6346 38.8468 42.8642 38.5025 42.8642C37.3546 42.8642 36.8955 42.979 35.7476 42.979Z" fill="white"/>
<path d="M50.7847 24.8426C50.7847 25.0722 50.6699 25.3018 50.3256 25.3018C47.8002 25.3018 46.5376 25.3018 44.0122 25.3018C44.0122 27.3679 44.0122 28.401 44.0122 30.4672C45.9636 30.4672 46.8819 30.4672 48.8333 30.4672C49.0629 30.4672 49.2925 30.582 49.2925 30.9264C49.2925 31.9594 49.2925 32.4186 49.2925 33.4517C49.2925 33.6813 49.1777 33.9108 48.8333 33.9108C46.8819 33.9108 45.9636 33.9108 44.0122 34.0256C44.0122 36.0918 44.0122 37.1249 44.0122 39.3058C46.5376 39.1911 47.8002 39.191 50.3256 39.191C50.6699 39.191 50.7847 39.3058 50.7847 39.6502C50.7847 40.6833 50.7847 41.1424 50.7847 42.1755C50.7847 42.4051 50.6699 42.6347 50.3256 42.6347C46.6524 42.7495 44.701 42.7495 41.0278 42.8642C40.7982 42.8642 40.6834 42.7495 40.6834 42.4051C40.6834 35.7474 40.6834 29.0898 40.6834 22.3173C40.6834 22.0877 40.7982 21.8582 41.0278 21.8582C44.701 21.8582 46.6524 21.8582 50.3256 21.8582C50.6699 21.8582 50.7847 21.9729 50.7847 22.3173C50.7847 23.3504 50.7847 23.8095 50.7847 24.8426Z" fill="white"/>
<path d="M63.2965 24.8426C63.2965 25.0722 63.1818 25.3017 62.8374 25.3017C60.3121 25.3017 59.0494 25.3017 56.5241 25.3017C56.5241 27.3679 56.5241 28.401 56.5241 30.4672C58.4755 30.4672 59.3938 30.4672 61.3452 30.4672C61.5747 30.4672 61.8043 30.582 61.8043 30.9263C61.8043 31.9594 61.8043 32.4186 61.8043 33.4516C61.8043 33.6812 61.6895 33.9108 61.3452 33.9108C59.3938 33.9108 58.4755 33.9108 56.5241 33.9108C56.5241 35.977 56.5241 37.0101 56.5241 39.0762C59.0494 39.0762 60.3121 39.0762 62.8374 39.0762C63.1818 39.0762 63.2965 39.191 63.2965 39.5354C63.2965 40.5685 63.2965 41.0276 63.2965 42.0607C63.2965 42.2903 63.1818 42.5198 62.8374 42.5198C59.1642 42.5198 57.2128 42.5198 53.5396 42.6346C53.31 42.6346 53.1953 42.5198 53.1953 42.1755C53.1953 35.6326 53.1953 29.0897 53.1953 22.432C53.1953 22.2025 53.31 21.9729 53.5396 21.9729C57.2128 21.9729 59.1642 21.9729 62.8374 21.9729C63.1818 21.9729 63.2965 22.0877 63.2965 22.432C63.2965 23.3503 63.2965 23.8095 63.2965 24.8426Z" fill="white"/>
<path d="M75.9232 24.8426C75.9232 25.0722 75.8084 25.3017 75.464 25.3017C72.9387 25.3017 71.676 25.3017 69.1507 25.3017C69.1507 27.3679 69.1507 28.401 69.1507 30.4672C71.1021 30.4672 72.0204 30.4672 73.857 30.4672C74.0866 30.4672 74.3161 30.582 74.3161 30.9263C74.3161 31.9594 74.3161 32.4186 74.3161 33.4516C74.3161 33.6812 74.2013 33.9108 73.857 33.9108C71.9056 33.9108 70.9873 33.9108 69.1507 33.9108C69.1507 37.1248 69.1507 38.8466 69.1507 42.0607C69.1507 42.2903 69.0359 42.5198 68.6915 42.5198C67.6585 42.5198 67.0845 42.5198 66.0514 42.5198C65.8219 42.5198 65.5923 42.4051 65.5923 42.0607C65.5923 35.5178 65.5923 28.9749 65.5923 22.432C65.5923 22.2025 65.7071 21.9729 66.0514 21.9729C69.7246 21.9729 71.676 21.9729 75.3492 21.9729C75.5788 21.9729 75.8084 22.0877 75.8084 22.432C75.9232 23.3503 75.9232 23.8095 75.9232 24.8426Z" fill="white"/>
<path d="M88.5497 24.9573C88.5497 25.1869 88.4349 25.4165 88.0906 25.4165C85.5653 25.4165 84.3026 25.4165 81.7773 25.4165C81.7773 27.4827 81.7773 28.5157 81.7773 30.5819C83.7287 30.5819 84.647 30.5819 86.4836 30.6967C86.7131 30.6967 86.9427 30.8115 86.9427 31.1559C86.9427 32.1889 86.9427 32.7629 86.9427 33.796C86.9427 34.0255 86.8279 34.2551 86.4836 34.2551C84.5322 34.2551 83.6139 34.2551 81.7773 34.1403C81.7773 37.4692 81.7773 39.0762 81.7773 42.405C81.7773 42.6346 81.6625 42.8642 81.3181 42.8642C80.285 42.8642 79.7111 42.8642 78.678 42.7494C78.4484 42.7494 78.2189 42.6346 78.2189 42.2902C78.2189 35.7473 78.2189 29.0897 78.2189 22.5468C78.2189 22.3172 78.3337 22.0876 78.678 22.0876C82.3512 22.0876 84.3026 22.0876 87.9758 22.0876C88.2054 22.0876 88.435 22.2024 88.435 22.5468C88.5497 23.3503 88.5497 23.9242 88.5497 24.9573Z" fill="white"/>
<path d="M101.176 25.0722C101.176 25.3018 101.062 25.5314 100.717 25.5314C98.1919 25.5314 96.9292 25.5314 94.4039 25.5314C94.4039 27.5975 94.4039 28.7454 94.4039 30.8116C96.3553 30.8116 97.2736 30.9264 99.225 30.9264C99.4546 30.9264 99.6841 31.0411 99.6841 31.3855C99.6841 32.4186 99.6841 32.9925 99.6841 34.0256C99.6841 34.37 99.5693 34.4848 99.225 34.4848C97.2736 34.37 96.3553 34.37 94.4039 34.37C94.4039 36.5509 94.4039 37.584 94.4039 39.6502C96.9292 39.765 98.1919 39.765 100.717 39.8798C101.062 39.8798 101.176 39.9946 101.176 40.3389C101.176 41.372 101.176 41.946 101.176 42.979C101.176 43.2086 101.062 43.4382 100.717 43.4382C97.044 43.2086 95.0926 43.0938 91.4194 42.979C91.1899 42.979 91.0751 42.7495 91.0751 42.5199C91.0751 35.7474 91.0751 29.0898 91.0751 22.3173C91.0751 22.0877 91.1899 21.8582 91.4194 21.8582C95.0926 21.8582 97.044 21.8582 100.717 21.8582C101.062 21.8582 101.176 21.9729 101.176 22.3173C101.176 23.4652 101.176 23.9243 101.176 25.0722Z" fill="white"/>
<path d="M103.702 22.4321C103.702 22.0877 103.931 21.8582 104.161 21.8582C105.079 21.8582 105.538 21.8582 106.457 21.8582C106.801 21.8582 106.916 22.0877 106.916 22.4321C106.916 23.4652 106.916 24.0391 106.916 25.0722C106.916 25.3018 106.916 25.5314 106.686 25.7609C106.112 26.6792 105.883 27.1384 105.309 27.9419C105.423 28.1715 105.309 28.1715 105.194 28.1715C104.735 28.1715 104.505 28.1715 104.046 28.1715C103.816 28.1715 103.816 28.0567 103.816 27.8271C104.276 26.9088 104.39 26.4497 104.85 25.4166C104.62 25.4166 104.505 25.4166 104.276 25.4166C103.931 25.4166 103.816 25.187 103.816 24.8426C103.702 23.9243 103.702 23.4652 103.702 22.4321Z" fill="white"/>
<path d="M115.984 21.858C118.394 21.858 119.657 23.2354 119.657 25.9903C119.657 27.253 119.657 27.8269 119.657 28.9748C119.657 29.2044 119.542 29.434 119.198 29.434C118.165 29.434 117.591 29.434 116.558 29.3192C116.328 29.3192 116.099 29.0896 116.099 28.86C116.099 27.9417 116.099 27.5974 116.099 26.6791C116.099 25.9903 115.754 25.5312 115.066 25.5312C114.606 25.5312 114.377 25.5312 113.803 25.5312C113.229 25.5312 112.77 25.8756 112.77 26.6791C112.77 28.1713 112.77 28.9748 112.77 30.467C115.18 31.3853 116.328 31.8445 118.739 32.8776C119.198 33.1072 119.428 33.4515 119.428 33.9107C119.428 36.5508 119.428 37.8134 119.428 40.4536C119.428 43.0937 118.165 44.4711 115.754 44.2415C114.606 44.1268 114.033 44.1268 112.885 44.012C110.589 43.7824 109.211 42.4049 109.211 39.7648C109.211 38.617 109.211 38.043 109.211 36.8951C109.211 36.5508 109.326 36.436 109.671 36.436C110.704 36.436 111.278 36.5508 112.311 36.5508C112.54 36.5508 112.77 36.6656 112.77 37.0099C112.77 37.8134 112.77 38.2726 112.77 39.1909C112.77 39.9944 113.114 40.3388 113.803 40.3388C114.262 40.3388 114.492 40.3388 115.066 40.4536C115.754 40.4536 116.099 40.1092 116.099 39.4205C116.099 37.9282 116.099 37.1247 116.099 35.6325C113.688 34.5994 112.54 34.1402 110.13 33.2219C109.671 32.9924 109.441 32.648 109.441 32.1889C109.441 29.5488 109.441 28.2861 109.441 25.646C109.441 23.0059 110.704 21.6284 113.114 21.6284C114.262 21.858 114.836 21.858 115.984 21.858Z" fill="white"/>
</svg>
