<svg width="16" height="16" viewBox="0 0 16 16" fill="none" xmlns="http://www.w3.org/2000/svg">
<path d="M15.9392 11.2542C15.8783 12.5318 15.5741 13.6877 14.6616 14.6002C13.749 15.5127 12.5932 15.8169 11.3156 15.8778C9.97719 15.9386 6.02281 15.9386 4.74525 15.8778C3.46768 15.8169 2.31179 15.5127 1.39924 14.6002C0.48669 13.6877 0.182508 12.5318 0.121671 11.2542C-1.76392e-06 9.97663 -1.76392e-06 6.02225 0.0608347 4.68385C0.121671 3.40628 0.425854 2.25039 1.3384 1.33784C2.25095 0.425295 3.40684 0.121112 4.68441 0.0602758C6.02281 -0.000560687 9.97719 -0.000560687 11.2548 0.0602758C12.5323 0.121112 13.6882 0.425295 14.6008 1.33784C15.5133 2.25039 15.8175 3.40628 15.8783 4.68385C16 6.02225 16 9.97663 15.9392 11.2542ZM14.5399 7.96902C14.5399 6.81313 14.6616 4.31883 14.2357 3.28461C13.9316 2.55457 13.4449 2.06788 12.7148 1.7637C11.6806 1.33784 9.18631 1.45952 8.03042 1.45952C6.87452 1.45952 4.38023 1.33784 3.34601 1.7637C2.61597 2.06788 2.12928 2.55457 1.82509 3.28461C1.39924 4.31883 1.52091 6.81313 1.52091 7.96902C1.52091 9.12492 1.39924 11.6192 1.82509 12.6534C2.12928 13.3835 2.61597 13.8702 3.34601 14.1743C4.38023 14.6002 6.87452 14.4785 8.03042 14.4785C9.18631 14.4785 11.6806 14.6002 12.7148 14.1743C13.4449 13.8702 13.9316 13.3835 14.2357 12.6534C14.6616 11.6192 14.5399 9.12492 14.5399 7.96902ZM12.1065 7.96902C12.1065 10.22 10.2814 12.0451 8.03042 12.0451C5.77947 12.0451 3.95437 10.22 3.95437 7.96902C3.95437 5.71807 5.77947 3.89298 8.03042 3.89298C10.2814 3.89298 12.1065 5.71807 12.1065 7.96902ZM10.6464 7.96902C10.6464 6.50894 9.42966 5.29221 7.96958 5.29221C6.5095 5.29221 5.29277 6.50894 5.29277 7.96902C5.29277 9.4291 6.5095 10.6458 7.96958 10.6458C9.42966 10.6458 10.6464 9.4291 10.6464 7.96902ZM12.2281 4.68385C11.6806 4.68385 11.2548 4.25799 11.2548 3.71047C11.2548 3.16294 11.6806 2.73708 12.2281 2.73708C12.7757 2.73708 13.2015 3.16294 13.2015 3.71047C13.2015 4.25799 12.7757 4.68385 12.2281 4.68385Z" fill="white"/>
</svg>
