<svg width="206" height="117" viewBox="0 0 206 117" fill="none" xmlns="http://www.w3.org/2000/svg">
<g filter="url(#filter0_d)">
<path d="M174.89 80.2806C174.89 77.6716 176.949 76.0239 179.146 76.0239C181.343 76.0239 183.403 77.6716 183.403 80.2806C183.403 82.8895 181.343 84.5373 179.146 84.5373C176.812 84.6746 174.89 82.8895 174.89 80.2806ZM179.146 76.8477C177.361 76.8477 175.988 78.2209 175.988 80.2806C175.988 82.203 177.361 83.7134 179.146 83.7134C180.931 83.7134 182.304 82.3403 182.304 80.2806C182.304 78.3582 180.794 76.8477 179.146 76.8477ZM178.322 82.7522C178.048 82.7522 177.773 82.7522 177.361 82.7522C177.361 81.1045 177.361 79.594 177.361 77.9463C177.91 77.9463 178.597 77.9463 179.146 77.9463C180.245 77.9463 180.931 78.3582 180.931 79.3194C180.931 80.1433 180.382 80.5552 179.833 80.5552C180.245 81.2418 180.519 81.9283 180.931 82.6149C180.657 82.6149 180.245 82.6149 179.97 82.6149C179.558 81.9283 179.284 81.2418 178.872 80.5552C178.734 80.5552 178.46 80.5552 178.322 80.5552C178.322 81.3791 178.322 82.0657 178.322 82.7522ZM178.322 79.8686C178.597 79.8686 178.872 79.8686 179.146 79.8686C179.833 79.8686 180.107 79.594 180.107 79.1821C180.107 78.7701 179.833 78.6328 179.146 78.6328C178.872 78.6328 178.597 78.6328 178.46 78.6328C178.322 79.0448 178.322 79.4567 178.322 79.8686Z" fill="white"/>
<path d="M168.436 30.9851C144.955 23.7075 120.239 20 94.6985 20C69.1582 20 44.4418 23.7075 20.9612 30.9851L20 31.2597V82.3403L20.9612 82.6149C44.4418 89.8925 69.1582 93.6 94.6985 93.6C120.239 93.6 144.955 89.8925 168.436 82.6149L169.397 82.3403V31.2597L168.436 30.9851Z" fill="#E2231A" stroke="white" stroke-width="2.2471" stroke-miterlimit="10"/>
<path d="M28.6508 48.6985C28.6508 45.5403 30.1612 43.7552 33.0448 43.7552C34.4179 43.7552 35.1045 43.7552 36.4776 43.7552C39.3612 43.7552 40.8717 45.403 40.8717 48.5612C40.8717 55.2896 40.8717 58.7224 40.8717 65.4508C40.8717 68.609 39.3612 70.2567 36.4776 70.5314C35.1045 70.6687 34.4179 70.6687 33.0448 70.806C30.1612 71.0806 28.6508 69.4329 28.6508 66.2747C28.6508 59.2717 28.6508 55.7015 28.6508 48.6985ZM35.6537 66.2747C36.4776 66.2747 36.8896 65.7254 36.8896 64.9015C36.8896 58.7224 36.8896 55.7015 36.8896 49.5224C36.8896 48.6985 36.4776 48.1493 35.6537 48.1493C34.9672 48.1493 34.5552 48.1493 33.8687 48.1493C33.0448 48.1493 32.6328 48.6985 32.6328 49.5224C32.6328 55.7015 32.6328 58.8597 32.6328 65.0388C32.6328 66 33.0448 66.412 33.8687 66.2747C34.5552 66.2747 34.8299 66.2747 35.6537 66.2747Z" fill="white"/>
<path d="M43.7552 44.4418C43.7552 44.0299 44.0299 43.7552 44.3045 43.7552C45.403 43.7552 45.9523 43.7552 47.0508 43.7552C47.4627 43.7552 47.6 44.0299 47.6 44.4418C47.6 45.6776 47.6 46.3642 47.6 47.6C47.6 47.8747 47.6 48.1493 47.3254 48.4239C46.6388 49.5224 46.3642 50.0717 45.6776 51.1702C45.6776 51.3075 45.6776 51.3075 45.403 51.3075C44.8538 51.3075 44.5791 51.3075 44.0299 51.3075C43.7553 51.3075 43.7552 51.1702 43.7552 50.8955C44.3045 49.797 44.4418 49.1105 44.9911 48.012C44.7164 48.012 44.5791 48.012 44.3045 48.012C43.8926 48.012 43.7552 47.7373 43.7552 47.3254C43.7552 46.2269 43.7552 45.6776 43.7552 44.4418Z" fill="white"/>
<path d="M60.3702 69.0209C59.9582 69.0209 59.8209 68.8836 59.6836 68.6089C58.1732 64.9015 57.3493 63.1164 55.8388 59.4089C55.4269 60.3701 55.1523 60.7821 54.7403 61.7433C54.7403 64.6268 54.7403 66 54.7403 68.7463C54.7403 69.1582 54.4657 69.4328 54.1911 69.4328C53.0926 69.4328 52.406 69.5701 51.3075 69.5701C50.8956 69.5701 50.7582 69.4328 50.7582 69.0209C50.7582 60.9194 50.7582 52.6806 50.7582 44.5791C50.7582 44.1671 51.0329 43.8925 51.3075 43.8925C52.406 43.8925 53.0926 43.8925 54.1911 43.8925C54.603 43.8925 54.7403 44.1671 54.7403 44.5791C54.7403 48.5612 54.7403 50.4836 54.7403 54.4657C56.6627 50.3462 57.4866 48.4239 59.409 44.4418C59.5463 44.1671 59.8209 44.0298 60.0956 44.0298C61.3314 44.0298 62.0179 44.0298 63.2538 44.0298C63.6657 44.0298 63.9403 44.3045 63.6657 44.7164C61.606 49.1104 60.6448 51.3074 58.5851 55.7015C60.7821 60.7821 61.8806 63.2537 64.0776 68.197C64.3523 68.6089 64.0776 68.8836 63.6657 68.8836C62.2926 68.8836 61.7433 69.0209 60.3702 69.0209Z" fill="white"/>
<path d="M78.3582 47.3254C78.3582 47.6 78.2209 47.8747 77.809 47.8747C74.7881 47.8747 73.2776 47.8747 70.2567 47.8747C70.2567 50.3463 70.2567 51.5821 70.2567 54.0538C72.5911 54.0538 73.6896 54.0538 76.0239 54.0538C76.2985 54.0538 76.5732 54.1911 76.5732 54.603C76.5732 55.8388 76.5732 56.3881 76.5732 57.6239C76.5732 57.8985 76.4359 58.1732 76.0239 58.1732C73.6896 58.1732 72.5911 58.1732 70.2567 58.3105C70.2567 60.7821 70.2567 62.0179 70.2567 64.6269C73.2776 64.4896 74.7881 64.4896 77.809 64.4896C78.2209 64.4896 78.3582 64.6269 78.3582 65.0388C78.3582 66.2747 78.3582 66.8239 78.3582 68.0597C78.3582 68.3344 78.2209 68.609 77.809 68.609C73.415 68.7463 71.0806 68.7463 66.6866 68.8836C66.412 68.8836 66.2747 68.7463 66.2747 68.3344C66.2747 60.3702 66.2747 52.406 66.2747 44.3045C66.2747 44.0299 66.412 43.7552 66.6866 43.7552C71.0806 43.7552 73.415 43.7552 77.809 43.7552C78.2209 43.7552 78.3582 43.8926 78.3582 44.3045C78.3582 45.5403 78.3582 46.0896 78.3582 47.3254Z" fill="white"/>
<path d="M93.3254 47.3254C93.3254 47.6 93.1881 47.8746 92.7761 47.8746C89.7553 47.8746 88.2448 47.8746 85.2239 47.8746C85.2239 50.3462 85.2239 51.5821 85.2239 54.0537C87.5582 54.0537 88.6567 54.0537 90.9911 54.0537C91.2657 54.0537 91.5403 54.191 91.5403 54.603C91.5403 55.8388 91.5403 56.388 91.5403 57.6239C91.5403 57.8985 91.403 58.1731 90.9911 58.1731C88.6567 58.1731 87.5582 58.1731 85.2239 58.1731C85.2239 60.6448 85.2239 61.8806 85.2239 64.3522C88.2448 64.3522 89.7553 64.3522 92.7761 64.3522C93.1881 64.3522 93.3254 64.4895 93.3254 64.9015C93.3254 66.1373 93.3254 66.6865 93.3254 67.9224C93.3254 68.197 93.1881 68.4716 92.7761 68.4716C88.3821 68.4716 86.0478 68.4716 81.6538 68.6089C81.3791 68.6089 81.2418 68.4716 81.2418 68.0597C81.2418 60.2328 81.2418 52.4059 81.2418 44.4418C81.2418 44.1671 81.3791 43.8925 81.6538 43.8925C86.0478 43.8925 88.3821 43.8925 92.7761 43.8925C93.1881 43.8925 93.3254 44.0298 93.3254 44.4418C93.3254 45.5403 93.3254 46.0895 93.3254 47.3254Z" fill="white"/>
<path d="M108.43 47.3254C108.43 47.6 108.293 47.8746 107.881 47.8746C104.86 47.8746 103.349 47.8746 100.328 47.8746C100.328 50.3462 100.328 51.5821 100.328 54.0537C102.663 54.0537 103.761 54.0537 105.958 54.0537C106.233 54.0537 106.507 54.191 106.507 54.603C106.507 55.8388 106.507 56.388 106.507 57.6239C106.507 57.8985 106.37 58.1731 105.958 58.1731C103.624 58.1731 102.525 58.1731 100.328 58.1731C100.328 62.0179 100.328 64.0776 100.328 67.9224C100.328 68.197 100.191 68.4716 99.7791 68.4716C98.5433 68.4716 97.8567 68.4716 96.6209 68.4716C96.3463 68.4716 96.0717 68.3343 96.0717 67.9224C96.0717 60.0955 96.0717 52.2686 96.0717 44.4418C96.0717 44.1671 96.209 43.8925 96.6209 43.8925C101.015 43.8925 103.349 43.8925 107.743 43.8925C108.018 43.8925 108.293 44.0298 108.293 44.4418C108.43 45.5403 108.43 46.0895 108.43 47.3254Z" fill="white"/>
<path d="M123.534 47.4627C123.534 47.7373 123.397 48.0119 122.985 48.0119C119.964 48.0119 118.454 48.0119 115.433 48.0119C115.433 50.4836 115.433 51.7194 115.433 54.191C117.767 54.191 118.866 54.191 121.063 54.3284C121.337 54.3284 121.612 54.4657 121.612 54.8776C121.612 56.1134 121.612 56.8 121.612 58.0358C121.612 58.3104 121.475 58.5851 121.063 58.5851C118.728 58.5851 117.63 58.5851 115.433 58.4478C115.433 62.4298 115.433 64.3522 115.433 68.3343C115.433 68.609 115.296 68.8836 114.884 68.8836C113.648 68.8836 112.961 68.8836 111.725 68.7463C111.451 68.7463 111.176 68.6089 111.176 68.197C111.176 60.3701 111.176 52.406 111.176 44.5791C111.176 44.3045 111.313 44.0298 111.725 44.0298C116.119 44.0298 118.454 44.0298 122.848 44.0298C123.122 44.0298 123.397 44.1672 123.397 44.5791C123.534 45.5403 123.534 46.2269 123.534 47.4627Z" fill="white"/>
<path d="M138.639 47.6C138.639 47.8747 138.502 48.1493 138.09 48.1493C135.069 48.1493 133.558 48.1493 130.537 48.1493C130.537 50.6209 130.537 51.9941 130.537 54.4657C132.872 54.4657 133.97 54.603 136.304 54.603C136.579 54.603 136.854 54.7403 136.854 55.1523C136.854 56.3881 136.854 57.0747 136.854 58.3105C136.854 58.7224 136.716 58.8597 136.304 58.8597C133.97 58.7224 132.872 58.7224 130.537 58.7224C130.537 61.3314 130.537 62.5672 130.537 65.0388C133.558 65.1761 135.069 65.1761 138.09 65.3135C138.502 65.3135 138.639 65.4508 138.639 65.8627C138.639 67.0985 138.639 67.7851 138.639 69.0209C138.639 69.2956 138.502 69.5702 138.09 69.5702C133.696 69.2955 131.361 69.1582 126.967 69.0209C126.693 69.0209 126.555 68.7463 126.555 68.4717C126.555 60.3702 126.555 52.406 126.555 44.3045C126.555 44.0299 126.693 43.7552 126.967 43.7552C131.361 43.7552 133.696 43.7552 138.09 43.7552C138.502 43.7552 138.639 43.8926 138.639 44.3045C138.639 45.6776 138.639 46.2269 138.639 47.6Z" fill="white"/>
<path d="M141.66 44.4418C141.66 44.0299 141.934 43.7552 142.209 43.7552C143.307 43.7552 143.857 43.7552 144.955 43.7552C145.367 43.7552 145.505 44.0299 145.505 44.4418C145.505 45.6776 145.505 46.3642 145.505 47.6C145.505 47.8747 145.505 48.1493 145.23 48.4239C144.543 49.5224 144.269 50.0717 143.582 51.0329C143.719 51.3075 143.582 51.3075 143.445 51.3075C142.896 51.3075 142.621 51.3075 142.072 51.3075C141.797 51.3075 141.797 51.1702 141.797 50.8955C142.346 49.797 142.484 49.2478 143.033 48.012C142.758 48.012 142.621 48.012 142.346 48.012C141.934 48.012 141.797 47.7373 141.797 47.3254C141.66 46.2269 141.66 45.6776 141.66 44.4418Z" fill="white"/>
<path d="M156.352 43.7552C159.236 43.7552 160.746 45.403 160.746 48.6985C160.746 50.209 160.746 50.8955 160.746 52.2687C160.746 52.5433 160.609 52.8179 160.197 52.8179C158.961 52.8179 158.275 52.8179 157.039 52.6806C156.764 52.6806 156.49 52.406 156.49 52.1313C156.49 51.0328 156.49 50.6209 156.49 49.5224C156.49 48.6985 156.078 48.1492 155.254 48.1492C154.704 48.1492 154.43 48.1492 153.743 48.1492C153.057 48.1492 152.507 48.5612 152.507 49.5224C152.507 51.3075 152.507 52.2687 152.507 54.0537C155.391 55.1522 156.764 55.7015 159.648 56.9373C160.197 57.2119 160.472 57.6239 160.472 58.1731C160.472 61.3313 160.472 62.8418 160.472 66C160.472 69.1582 158.961 70.806 156.078 70.5313C154.704 70.394 154.018 70.394 152.645 70.2567C149.898 69.9821 148.251 68.3343 148.251 65.1761C148.251 63.803 148.251 63.1164 148.251 61.7433C148.251 61.3313 148.388 61.194 148.8 61.194C150.036 61.194 150.722 61.3313 151.958 61.3313C152.233 61.3313 152.507 61.4687 152.507 61.8806C152.507 62.8418 152.507 63.391 152.507 64.4895C152.507 65.4507 152.919 65.8627 153.743 65.8627C154.293 65.8627 154.567 65.8627 155.254 66C156.078 66 156.49 65.5881 156.49 64.7642C156.49 62.9791 156.49 62.0179 156.49 60.2328C153.606 58.997 152.233 58.4478 149.349 57.3492C148.8 57.0746 148.525 56.6627 148.525 56.1134C148.525 52.9552 148.525 51.4448 148.525 48.2866C148.525 45.1284 150.036 43.4806 152.919 43.4806C154.293 43.7552 154.979 43.7552 156.352 43.7552Z" fill="white"/>
</g>
<defs>
<filter id="filter0_d" x="0.876465" y="0.876465" width="204.527" height="115.847" filterUnits="userSpaceOnUse" color-interpolation-filters="sRGB">
<feFlood flood-opacity="0" result="BackgroundImageFix"/>
<feColorMatrix in="SourceAlpha" type="matrix" values="0 0 0 0 0 0 0 0 0 0 0 0 0 0 0 0 0 0 127 0"/>
<feOffset dx="2" dy="2"/>
<feGaussianBlur stdDeviation="10"/>
<feColorMatrix type="matrix" values="0 0 0 0 0 0 0 0 0 0 0 0 0 0 0 0 0 0 0.2 0"/>
<feBlend mode="normal" in2="BackgroundImageFix" result="effect1_dropShadow"/>
<feBlend mode="normal" in="SourceGraphic" in2="effect1_dropShadow" result="shape"/>
</filter>
</defs>
</svg>
