<svg width="16" height="13" viewBox="0 0 16 13" fill="none" xmlns="http://www.w3.org/2000/svg">
<g clip-path="url(#clip0)">
<path d="M14.3385 3.69668C14.3385 8.00948 11.0154 13.0616 4.98463 13.0616C3.13848 13.0616 1.4154 12.5071 -0.0615234 11.5829C0.18463 11.5829 0.430784 11.6445 0.738476 11.6445C2.27694 11.6445 3.69232 11.1517 4.80001 10.2275C3.38463 10.2275 2.15386 9.24171 1.72309 7.94787C1.90771 7.94787 2.15386 8.00948 2.33848 8.00948C2.64617 8.00948 2.95386 7.94787 3.20001 7.88626C1.72309 7.5782 0.553861 6.28436 0.553861 4.68246V4.55924C0.98463 4.80569 1.47694 4.92891 2.03078 4.99052C1.23078 4.37441 0.676938 3.38863 0.676938 2.27962C0.676938 1.66351 0.861553 1.109 1.10771 0.616114C2.70771 2.58768 5.16925 3.88152 7.87694 4.06635C7.8154 3.81991 7.8154 3.57346 7.8154 3.32701C7.8154 1.47867 9.23078 0 11.0769 0C12 0 12.8616 0.369668 13.4769 1.04739C14.2154 0.924171 14.9539 0.616114 15.5692 0.246445C15.3231 0.985782 14.8308 1.66351 14.1539 2.03318C14.7692 1.97156 15.3846 1.78673 16 1.54028C15.5692 2.21801 15.0154 2.77251 14.3385 3.2654C14.3385 3.38863 14.3385 3.51185 14.3385 3.69668Z" fill="white"/>
</g>
<defs>
<clipPath id="clip0">
<rect width="16" height="13" fill="white"/>
</clipPath>
</defs>
</svg>
